<svg xmlns="http://www.w3.org/2000/svg" viewBox="0 0 244 39.09"><path d="M46.21,8.8v7.85l7.4-7.85h5.2l-7.4,7.48,8.12,11.46H54.3l-5.7-8.52-2.39,2.42v6.1H42.05V8.8ZM64.11,14v1.91h.08a4.35,4.35,0,0,1,1.86-1.73,5.27,5.27,0,0,1,2.33-.55,6.45,6.45,0,0,1,2.48.41,3.76,3.76,0,0,1,1.53,1.14A4.45,4.45,0,0,1,73.17,17a11.05,11.05,0,0,1,.23,2.32v8.44H69.63V20a4.84,4.84,0,0,0-.53-2.53,2,2,0,0,0-1.88-.84,2.61,2.61,0,0,0-2.23.92,5.08,5.08,0,0,0-.69,3v7.19H60.53V14Zm12,3.89a6.26,6.26,0,0,1,3.66-3.74,7.86,7.86,0,0,1,2.91-.52,8,8,0,0,1,2.93.52,6.18,6.18,0,0,1,2.24,1.46,6.52,6.52,0,0,1,1.44,2.28,8.55,8.55,0,0,1,.5,3,8.41,8.41,0,0,1-.5,3,6.48,6.48,0,0,1-1.44,2.27,6.15,6.15,0,0,1-2.24,1.45,8.22,8.22,0,0,1-2.93.5,8.07,8.07,0,0,1-2.91-.5,6.23,6.23,0,0,1-3.66-3.72,8.19,8.19,0,0,1-.51-3A8.32,8.32,0,0,1,76.08,17.91ZM79.5,22.5A4,4,0,0,0,80,23.9a3,3,0,0,0,1,1,3.12,3.12,0,0,0,1.59.37,3.2,3.2,0,0,0,1.61-.37,2.82,2.82,0,0,0,1-1,4.23,4.23,0,0,0,.55-1.4A8.53,8.53,0,0,0,86,20.89a8.69,8.69,0,0,0-.15-1.61,4.2,4.2,0,0,0-.55-1.41,2.88,2.88,0,0,0-1-1,3.1,3.1,0,0,0-1.61-.39A2.92,2.92,0,0,0,80,17.87a4,4,0,0,0-.54,1.41,7.92,7.92,0,0,0-.16,1.61A7.78,7.78,0,0,0,79.5,22.5Zm24.24,5.24-2.44-9.21h0l-2.34,9.21H95L90.66,14h4l2.52,9.31h0L99.5,14h3.66l2.33,9.29h.05L108.06,14h3.87l-4.32,13.72ZM117.13,8.8V27.74h-3.76V8.8Zm6.74,15.65a3.86,3.86,0,0,0,4.4.25,2.33,2.33,0,0,0,1-1.21h3.32A6.32,6.32,0,0,1,130.16,27a7.19,7.19,0,0,1-4,1.06,7.75,7.75,0,0,1-2.92-.52,5.92,5.92,0,0,1-2.2-1.47,6.42,6.42,0,0,1-1.39-2.28,8.28,8.28,0,0,1-.49-2.92,7.89,7.89,0,0,1,.5-2.86,6.72,6.72,0,0,1,1.43-2.3,6.8,6.8,0,0,1,2.22-1.52,7.07,7.07,0,0,1,2.85-.56,6.56,6.56,0,0,1,3,.68,6.07,6.07,0,0,1,2.13,1.82,7.4,7.4,0,0,1,1.21,2.6,9.32,9.32,0,0,1,.26,3.05h-9.89A3.77,3.77,0,0,0,123.87,24.45Zm4.26-7.22a2.67,2.67,0,0,0-2.06-.74,3.21,3.21,0,0,0-1.5.31,2.79,2.79,0,0,0-1.46,1.71,4.84,4.84,0,0,0-.17.9h6.13A4.41,4.41,0,0,0,128.13,17.23ZM144.53,26a3.88,3.88,0,0,1-1.74,1.6,5.69,5.69,0,0,1-2.42.49,5.85,5.85,0,0,1-2.71-.6,5.28,5.28,0,0,1-1.92-1.61,7.14,7.14,0,0,1-1.14-2.35,9.69,9.69,0,0,1-.39-2.76,9.06,9.06,0,0,1,.39-2.66,6.64,6.64,0,0,1,1.14-2.27,5.53,5.53,0,0,1,1.9-1.58,5.6,5.6,0,0,1,2.65-.6,5.49,5.49,0,0,1,2.32.52,4,4,0,0,1,1.74,1.53h.05V8.8h3.76V27.74h-3.58V26Zm-.16-6.78a4,4,0,0,0-.54-1.38,3.09,3.09,0,0,0-1-1,2.87,2.87,0,0,0-1.53-.37,3,3,0,0,0-1.57.37,3.09,3.09,0,0,0-1,1,4.37,4.37,0,0,0-.56,1.4,7.83,7.83,0,0,0-.17,1.63,6.65,6.65,0,0,0,.19,1.59,4.39,4.39,0,0,0,.59,1.42,3.45,3.45,0,0,0,1,1,2.83,2.83,0,0,0,1.5.38,3,3,0,0,0,1.55-.37,2.87,2.87,0,0,0,1-1,4.17,4.17,0,0,0,.53-1.41,8.17,8.17,0,0,0,.16-1.65A7.91,7.91,0,0,0,144.37,19.21Zm19.32,9.53a4.68,4.68,0,0,1-1,2,5.82,5.82,0,0,1-2.15,1.55,10.22,10.22,0,0,1-5.82.39,6.36,6.36,0,0,1-1.91-.79,4.56,4.56,0,0,1-1.44-1.36,4.06,4.06,0,0,1-.65-2h3.74a2.2,2.2,0,0,0,1,1.47,3.74,3.74,0,0,0,1.78.41,2.73,2.73,0,0,0,2.32-1,3.75,3.75,0,0,0,.7-2.41v-1.8h-.05a3.75,3.75,0,0,1-1.74,1.6,5.55,5.55,0,0,1-2.38.52,6.05,6.05,0,0,1-2.65-.54,5.14,5.14,0,0,1-1.83-1.49,6.32,6.32,0,0,1-1.05-2.2,10.5,10.5,0,0,1-.33-2.67,8.5,8.5,0,0,1,.39-2.56,6.67,6.67,0,0,1,1.12-2.17,5.42,5.42,0,0,1,1.85-1.5,5.54,5.54,0,0,1,2.53-.56,5.31,5.31,0,0,1,2.38.51,4.08,4.08,0,0,1,1.71,1.69h.05V14h3.58V26.86A9.14,9.14,0,0,1,163.69,28.74Zm-5.15-4.56a2.84,2.84,0,0,0,1-.85,3.56,3.56,0,0,0,.6-1.2,5.13,5.13,0,0,0,.2-1.42,7.58,7.58,0,0,0-.16-1.61,4.09,4.09,0,0,0-.53-1.34,2.88,2.88,0,0,0-1-.92,3.1,3.1,0,0,0-1.54-.35,2.68,2.68,0,0,0-2.32,1.18,3.65,3.65,0,0,0-.56,1.25,6.43,6.43,0,0,0-.17,1.47,7.19,7.19,0,0,0,.15,1.47,3.68,3.68,0,0,0,.5,1.31,3,3,0,0,0,.94,1,2.66,2.66,0,0,0,1.46.37A3.05,3.05,0,0,0,158.54,24.18Zm12.17.27a3.86,3.86,0,0,0,4.4.25,2.33,2.33,0,0,0,1-1.21h3.32A6.32,6.32,0,0,1,177,27a7.19,7.19,0,0,1-4,1.06,7.75,7.75,0,0,1-2.92-.52,5.92,5.92,0,0,1-2.2-1.47,6.42,6.42,0,0,1-1.39-2.28,8.28,8.28,0,0,1-.5-2.92,7.89,7.89,0,0,1,.51-2.86,6.72,6.72,0,0,1,1.43-2.3,6.8,6.8,0,0,1,2.22-1.52,7.07,7.07,0,0,1,2.85-.56,6.56,6.56,0,0,1,3,.68,6.07,6.07,0,0,1,2.13,1.82,7.4,7.4,0,0,1,1.21,2.6,9.6,9.6,0,0,1,.26,3.05h-9.89A3.77,3.77,0,0,0,170.71,24.45ZM175,17.23a2.67,2.67,0,0,0-2.06-.74,3.21,3.21,0,0,0-1.5.31A2.79,2.79,0,0,0,170,18.51a4.84,4.84,0,0,0-.17.9h6.13A4.41,4.41,0,0,0,175,17.23ZM191,8.8a11.66,11.66,0,0,1,2.46.24,5.33,5.33,0,0,1,1.91.78,3.66,3.66,0,0,1,1.24,1.45,5.08,5.08,0,0,1,.43,2.22,4.1,4.1,0,0,1-.65,2.39,4.69,4.69,0,0,1-1.92,1.57A4.49,4.49,0,0,1,197,19.21a5.21,5.21,0,0,1,.87,3,5.25,5.25,0,0,1-.56,2.48,4.77,4.77,0,0,1-1.5,1.71,6.6,6.6,0,0,1-2.15,1,9.75,9.75,0,0,1-2.48.32H182V8.8Zm-.53,7.66a3,3,0,0,0,1.83-.53,2,2,0,0,0,.71-1.72,2.23,2.23,0,0,0-.24-1.09,1.82,1.82,0,0,0-.63-.66,2.65,2.65,0,0,0-.92-.33A6.18,6.18,0,0,0,190.1,12h-3.9v4.42Zm.23,8a5.52,5.52,0,0,0,1.17-.12,2.77,2.77,0,0,0,1-.4,1.9,1.9,0,0,0,.68-.75,2.6,2.6,0,0,0,.25-1.22,2.43,2.43,0,0,0-.82-2.08,3.49,3.49,0,0,0-2.18-.63H186.2v5.2Zm9.23-6.26a4.43,4.43,0,0,1,.67-2.2A4.64,4.64,0,0,1,202,14.63a6.56,6.56,0,0,1,2-.75,11.58,11.58,0,0,1,2.27-.23,15,15,0,0,1,2.1.15,6.57,6.57,0,0,1,1.93.57,3.83,3.83,0,0,1,1.43,1.18,3.29,3.29,0,0,1,.56,2v7.14a14.25,14.25,0,0,0,.11,1.77,3.2,3.2,0,0,0,.37,1.28H209a5.19,5.19,0,0,1-.17-.65,5.06,5.06,0,0,1-.1-.68,4.93,4.93,0,0,1-2.12,1.3,8.39,8.39,0,0,1-2.49.37,6.64,6.64,0,0,1-1.83-.24,4.17,4.17,0,0,1-1.49-.74,3.55,3.55,0,0,1-1-1.27,4.33,4.33,0,0,1-.36-1.83,4.09,4.09,0,0,1,.41-1.93,3.53,3.53,0,0,1,1.06-1.2,4.83,4.83,0,0,1,1.49-.68,16.21,16.21,0,0,1,1.68-.36c.57-.09,1.12-.16,1.67-.21a9.07,9.07,0,0,0,1.46-.24,2.49,2.49,0,0,0,1-.46,1,1,0,0,0,.34-.89,2,2,0,0,0-.19-1,1.53,1.53,0,0,0-.54-.56,2,2,0,0,0-.76-.26,5.73,5.73,0,0,0-1-.07,2.86,2.86,0,0,0-1.75.48,2.15,2.15,0,0,0-.74,1.59Zm8.7,2.79a1.6,1.6,0,0,1-.59.33,7.84,7.84,0,0,1-.77.2l-.86.13-.91.13c-.28.06-.56.13-.83.21a2.56,2.56,0,0,0-.72.36,1.81,1.81,0,0,0-.49.57,1.89,1.89,0,0,0-.18.88,1.84,1.84,0,0,0,.18.85,1.4,1.4,0,0,0,.51.54,2.11,2.11,0,0,0,.74.28,4.94,4.94,0,0,0,.87.08,3.42,3.42,0,0,0,1.73-.37,2.56,2.56,0,0,0,.9-.89,3.12,3.12,0,0,0,.36-1,7.94,7.94,0,0,0,.06-.85Zm9.59,3.3a2.22,2.22,0,0,0,.65.71,2.77,2.77,0,0,0,.92.42,4.68,4.68,0,0,0,1.07.13,4.14,4.14,0,0,0,.84-.09,2.88,2.88,0,0,0,.79-.3,1.8,1.8,0,0,0,.6-.53,1.38,1.38,0,0,0,.24-.83c0-.57-.38-1-1.13-1.28a22.73,22.73,0,0,0-3.14-.84c-.55-.13-1.09-.27-1.61-.44a5.76,5.76,0,0,1-1.39-.66,3.24,3.24,0,0,1-1-1,2.88,2.88,0,0,1-.37-1.52,4.09,4.09,0,0,1,.52-2.18,3.8,3.8,0,0,1,1.36-1.34,5.87,5.87,0,0,1,1.91-.69,12,12,0,0,1,2.18-.2,10.28,10.28,0,0,1,2.16.22,5.82,5.82,0,0,1,1.87.71A4.24,4.24,0,0,1,226,15.92a4.42,4.42,0,0,1,.65,2.11h-3.58a1.63,1.63,0,0,0-.82-1.47,3.73,3.73,0,0,0-1.75-.39c-.21,0-.44,0-.69,0a2.82,2.82,0,0,0-.68.17,1.39,1.39,0,0,0-.51.39,1,1,0,0,0-.22.68,1,1,0,0,0,.38.82,3,3,0,0,0,1,.52,11.82,11.82,0,0,0,1.37.35c.51.11,1,.22,1.56.35a14.16,14.16,0,0,1,1.61.45,5.49,5.49,0,0,1,1.39.7,3.3,3.3,0,0,1,1,1.09,3.16,3.16,0,0,1,.37,1.6,4.38,4.38,0,0,1-.54,2.27,4.25,4.25,0,0,1-1.42,1.47,5.63,5.63,0,0,1-2,.79,11.72,11.72,0,0,1-2.3.22,11.3,11.3,0,0,1-2.33-.24,6.19,6.19,0,0,1-2-.79,4.34,4.34,0,0,1-2.08-3.77h3.58A2,2,0,0,0,218.17,24.33Zm14.84.12a3.86,3.86,0,0,0,4.4.25,2.33,2.33,0,0,0,1-1.21h3.32A6.32,6.32,0,0,1,239.3,27a7.16,7.16,0,0,1-4,1.06,7.75,7.75,0,0,1-2.92-.52,6,6,0,0,1-2.2-1.47,6.42,6.42,0,0,1-1.39-2.28,8.28,8.28,0,0,1-.49-2.92,7.89,7.89,0,0,1,.5-2.86,6.87,6.87,0,0,1,1.43-2.3,6.8,6.8,0,0,1,2.22-1.52,7.14,7.14,0,0,1,2.85-.56,6.53,6.53,0,0,1,3.05.68,6,6,0,0,1,2.13,1.82,7.4,7.4,0,0,1,1.21,2.6A9.6,9.6,0,0,1,242,21.8h-9.9A3.87,3.87,0,0,0,233,24.45Zm4.26-7.22a2.67,2.67,0,0,0-2.06-.74,3.21,3.21,0,0,0-1.5.31,2.88,2.88,0,0,0-1,.75,2.6,2.6,0,0,0-.5,1,4.21,4.21,0,0,0-.18.9h6.13A4.41,4.41,0,0,0,237.27,17.23Zm-204.34.09-7.27-7.26-9.5,9.5,9.48,9.49,7.29-7.28A3.16,3.16,0,0,0,32.93,17.32Zm-18.61-1.9,8.35-8.35L20.15,4.54a3.14,3.14,0,0,0-4.45,0L14.32,5.92Zm-4.23-5.27L2.92,17.32a3.14,3.14,0,0,0,0,4.45l7.17,7.17Zm4.23,13.56v9.46l1.38,1.38a3.16,3.16,0,0,0,4.45,0L22.65,32Z" fill="#fff"/></svg>